<svg width="1570" height="823" viewBox="0 0 1570 823" fill="none" xmlns="http://www.w3.org/2000/svg">
<path d="M1328.75 261.049C1340.8 252.308 1353.81 248.008 1368.5 248.869C1390.16 250.137 1406.49 260.281 1417.42 278.699C1431.76 302.847 1427.35 330.95 1409.63 349.658C1393.77 366.4 1373.83 372.908 1350.89 367.18C1324.45 360.574 1305.69 337.425 1305.19 310.224C1304.82 290.254 1313.07 273.936 1328.75 261.049Z" fill="white"/>
<path d="M826.269 181.634C798.675 181.943 772.915 159.978 768.737 132.577C763.84 100.472 781.651 71.4853 812.759 63.9275C835.826 58.3233 856.672 64.2664 872.902 82.5209C890.708 102.548 892.921 132.839 877.873 154.93C866.572 171.521 850.802 180.941 829.627 181.674C828.011 181.632 827.14 181.633 826.269 181.634Z" fill="white"/>
<path d="M1325.64 583.44C1323.36 575.178 1319.82 567.013 1319.18 558.625C1318.6 551.034 1320.07 542.821 1322.57 535.547C1329.06 516.676 1342.21 503.576 1361.48 498.093C1383.22 491.905 1403.13 496.198 1419.96 511.939C1436.16 527.085 1441.74 546.063 1437.63 567.322C1433.6 588.154 1421.09 603.111 1401.18 610.964C1382.79 618.225 1364.62 616.546 1347.56 606.691C1338.4 601.398 1331.49 593.48 1325.92 583.983C1325.71 583.658 1325.64 583.44 1325.64 583.44Z" fill="white"/>
<path d="M1121.19 420.918C1121.15 423.11 1121.11 425.301 1120.86 428.146C1119.79 437.783 1117.25 446.332 1112.65 454.031C1100.33 474.653 1074.88 487.779 1049.1 482.337C1017.66 475.699 995.526 443.929 1003.21 411.321C1008.28 389.786 1021.51 375.42 1042.17 367.703C1043.66 367.148 1044.82 365.731 1046.57 364.666C1051.16 364.259 1055.32 363.901 1059.77 363.705C1063.2 364.352 1066.32 364.907 1069.45 365.31C1093.47 368.402 1115.07 387.758 1119.54 413.104C1120 415.724 1120.63 418.314 1121.19 420.918Z" fill="white"/>
<path d="M1052.67 538.494C1056.5 520.841 1066.4 508.023 1082.3 500.751C1104.57 490.568 1128.1 495.144 1144.36 513.537C1161 532.369 1162.99 557.291 1148.32 578.914C1137.56 594.771 1122.04 602.254 1103.45 601.933C1079.13 601.512 1059.33 585.324 1053.23 561.876C1051.35 554.652 1052.75 546.576 1052.67 538.494Z" fill="white"/>
<path d="M1114.1 144.718C1120.22 119.508 1143.72 102.7 1169.56 104.854C1190.92 106.634 1206 117.883 1214.18 137.197C1221.9 155.397 1219.62 173.578 1207.53 189.245C1194.6 205.996 1176.91 213.467 1155.77 209.277C1133.91 204.944 1119.87 191.552 1114.09 169.787C1111.89 161.53 1111.88 153.326 1114.1 144.718Z" fill="white"/>
<path d="M1192.84 802.265C1180.82 816.743 1165.7 824.111 1147.18 822.864C1118.73 820.948 1098.9 797.548 1098.18 773.217C1097.42 747.466 1110.68 727.2 1135.22 719.592C1158.74 712.3 1183.03 721.052 1195.89 742.645C1207.89 762.784 1206.16 782.806 1192.84 802.265Z" fill="white"/>
<path d="M947.54 7.25653C968.072 -3.79428 988.045 -2.05176 1005.86 11.3125C1023.62 24.6304 1029.92 43.8238 1025.04 65.4706C1020.95 83.5869 1009.49 96.3752 991.785 102.732C967.819 111.337 944.611 103.301 930.539 83.975C916.829 65.1452 916.677 39.3222 932.399 20.4703C936.57 15.4696 942.255 11.7325 947.54 7.25653Z" fill="white"/>
<path d="M1204.06 503.576C1195.9 496.479 1189.47 488.482 1186.67 478.222C1183.63 467.085 1183.46 455.895 1187.36 444.798C1192.29 430.782 1201.66 420.63 1214.87 414.386C1224.72 409.733 1235.33 408.062 1246.27 410.167C1263.08 413.4 1275.38 422.786 1283.95 437.432C1294.12 454.789 1290.98 481.934 1277.47 496.911C1267.17 508.342 1254.48 514.771 1239.33 515.28C1226.51 515.711 1214.48 512.172 1204.06 503.576Z" fill="white"/>
<path d="M944.151 289.578C944.962 289.656 945.772 289.735 947.166 290.058C948.747 290.633 949.724 291.146 950.748 291.268C967.27 293.231 978.961 302.496 987.455 316.118C990.433 320.893 992.259 326.385 994.611 331.55C994.623 332.339 994.636 333.128 994.644 334.691C994.695 340.868 994.749 346.27 994.804 351.673C994.729 352.151 994.654 352.63 994.343 353.646C991.56 360.323 989.013 366.462 986.466 372.601C986.103 373.084 985.74 373.568 984.963 374.373C984.007 375.208 983.411 375.675 982.931 376.241C970.647 390.683 955.028 397.427 936.258 394.75C928.528 393.647 921.155 390.049 913.619 387.587C913.441 387.474 913.262 387.362 912.739 386.862C903.912 379.263 895.81 371.522 892.863 360.438C890.873 352.956 890.498 345.046 889.401 337.327C889.467 336.855 889.532 336.382 889.85 335.39C891.881 325.862 895.197 317.472 901.008 310.322C904.206 306.387 908.044 302.972 911.594 299.322C912.152 299.024 912.711 298.726 913.762 298.183C920.88 295.676 927.509 293.423 934.129 291.143C935.357 290.72 936.548 290.187 937.756 289.705C938.291 289.713 938.826 289.722 940.074 289.771C941.908 289.733 943.029 289.655 944.151 289.578Z" fill="white"/>
<path d="M1325.24 583.326C1325.64 583.44 1325.71 583.658 1325.72 583.682C1325.87 585.578 1325.59 587.6 1326.2 589.302C1335.51 615.245 1318.7 642.53 1291.33 644.953C1269.85 646.855 1251.67 633.009 1247.42 614.266C1241.72 589.141 1256.96 566.6 1281.47 563.081C1298.59 560.624 1312.16 566.976 1322.11 581.128C1322.74 582.022 1323.93 582.527 1325.24 583.326Z" fill="white"/>
<path d="M1430.63 174.484C1454.93 173.669 1473.44 193.221 1473.77 215.742C1474.03 232.992 1460.99 249.597 1445.24 254.988C1426.56 261.377 1406.94 253.249 1397.07 237.56C1389.7 225.836 1388.33 212.994 1394.05 199.854C1399.46 187.414 1408.64 179.336 1421.7 175.775C1424.45 175.025 1427.37 174.906 1430.63 174.484Z" fill="white"/>
<path d="M1076.48 273.481C1063.24 264.559 1056.84 252.309 1057.44 236.726C1058.15 218.147 1072.14 201.247 1090.67 198.205C1110.45 194.957 1128.09 203.365 1136.33 221.596C1146.38 243.806 1135.59 269.08 1112.8 277.351C1100.03 281.985 1088.2 280.48 1076.48 273.481Z" fill="white"/>
<path d="M890.905 312.864C871.74 331.336 837.862 326.369 825.841 301.927C815.74 281.391 822.415 256.015 844.449 245.54C859.865 238.211 873.969 239.295 889.208 251.704C900.907 261.229 905.37 274.048 903.324 288.855C902.053 298.051 897.796 306.037 890.905 312.864Z" fill="white"/>
<path d="M1173.4 625.195C1190.5 643.108 1188.13 670.148 1170.33 685.417C1146.59 705.787 1109.65 692.591 1103.39 663.159C1097.25 634.313 1120.31 612.522 1142.54 612.818C1154.7 612.98 1164.47 617.13 1173.4 625.195Z" fill="white"/>
<path d="M1294.7 196.442C1300.07 219.44 1290.13 240.258 1266.98 247.342C1244 254.374 1222.09 242.477 1215.59 219.894C1206.21 187.301 1234.11 160.958 1263.87 167.496C1279.26 170.875 1289.73 180.781 1294.7 196.442Z" fill="white"/>
<path d="M1210.52 664.172C1222.46 660.626 1233.61 660.979 1244.66 666.641C1262.41 675.73 1272.22 699.745 1262.78 720.029C1249.7 748.108 1214.63 750.217 1196.76 733.07C1178.78 715.807 1179.08 685.912 1200.69 669.581C1203.55 667.417 1207 666.019 1210.52 664.172Z" fill="white"/>
<path d="M791.599 216.152C801.524 231.835 799.309 253.399 787.937 265.941C768.533 287.342 734.842 283.87 721.006 258.902C712.851 244.185 713.544 229.3 722.619 215.522C730.694 203.262 742.897 196.994 757.757 197.399C771.966 197.787 783.282 204.093 791.599 216.152Z" fill="white"/>
<path d="M1300.44 334.314C1316.08 347.788 1318.19 367.939 1311.22 383.274C1298.58 411.103 1259.26 415.342 1240.88 390.874C1222.18 365.986 1236.17 332.62 1263.14 325.993C1276.58 322.69 1289.26 324.932 1300.44 334.314Z" fill="white"/>
<path d="M1169.28 533.897C1178.31 520.283 1190.81 513.45 1206.75 514.518C1223.65 515.651 1235.95 524.557 1242.28 540.234C1248.4 555.369 1245.95 569.962 1235.25 582.322C1224.79 594.402 1211.06 598.641 1195.39 595.479C1168.51 590.051 1153.99 558.597 1169.28 533.897Z" fill="white"/>
<path d="M1169.34 26.0489C1186.74 16.932 1205.25 18.967 1218.83 31.8001C1233.58 45.7397 1235.49 69.1925 1223.97 85.3245C1207.46 108.45 1171.77 108.948 1155.52 83.399C1143.85 65.0557 1148.14 39.9304 1169.34 26.0489Z" fill="white"/>
<path d="M1431.46 351.198C1435.69 334.663 1445.65 323.466 1461.85 319.711C1474.37 316.808 1486.99 318.36 1497.37 327.401C1513.47 341.418 1517.65 360.5 1507.63 379.325C1501.12 391.558 1490.4 398.373 1476.14 400.292C1455.42 403.082 1436.35 387.924 1432.49 371.28C1431.03 364.969 1431.72 358.16 1431.46 351.198Z" fill="white"/>
<path d="M826.227 181.994C827.141 181.633 828.012 181.632 829.205 181.634C829.394 185 832.182 185.099 834.21 185.293C845.408 186.363 855.819 200.346 855.125 211.878C854.053 229.687 840.759 240.585 822.887 238.432C806.074 236.407 795.631 215.5 802.339 201.657C806.668 192.723 812.606 187.124 822.233 185.119C823.679 184.818 824.873 183.306 826.227 181.994Z" fill="white"/>
<path d="M1480.32 438.849C1474.68 451.071 1462.15 458.482 1449.21 455.029C1432.72 450.626 1424.35 437.279 1429.43 419.658C1433.21 406.553 1443.75 401.957 1455.9 400.54C1465.1 399.466 1478.02 409.812 1480.54 418.879C1482.37 425.503 1482.58 431.976 1480.32 438.849Z" fill="white"/>
<path d="M1131.98 54.119C1143.25 65.7916 1142.01 80.1428 1135.77 89.166C1128.93 99.0588 1116.41 103.89 1105.61 100.234C1093.84 96.2475 1086 86.0437 1086.34 74.0553C1086.65 63.2276 1090.92 55.087 1100.52 50.0851C1111.7 44.2561 1122.12 46.127 1131.98 54.119Z" fill="white"/>
<path d="M720.054 334.313C706.563 325.428 702.958 316.849 706.017 301.367C707.777 292.456 718.582 283.359 727.641 282.747C737.135 282.105 745.72 283.491 752.235 291.33C759.132 299.63 760.885 309.256 757.34 318.973C753.358 329.888 745.109 336.506 732.81 336.213C728.641 336.114 724.493 335.109 720.054 334.313Z" fill="white"/>
<path d="M1127.44 464.088C1133.02 452.27 1141.73 445.981 1154.84 446.522C1166.02 446.983 1176.13 455.564 1179.26 466.327C1184.36 483.876 1169.79 503.238 1149.63 500.593C1135.01 498.674 1125.24 486.656 1126.04 471.565C1126.16 469.17 1126.89 466.807 1127.44 464.088Z" fill="white"/>
<path d="M1543.07 325.047C1524.35 323.479 1512.5 309.413 1516.05 292.499C1518.51 280.792 1526.08 271.738 1541.58 270.773C1552.57 270.089 1563.01 276.051 1567.71 287.354C1574.62 303.951 1563.39 323.405 1545.66 324.512C1544.92 324.559 1544.19 324.834 1543.07 325.047Z" fill="white"/>
<path d="M770.244 336.652C767.003 321.14 775.814 307.2 790.845 303.517C804.122 300.264 819.21 309.344 822.628 323.365C825.835 336.518 819.561 349.998 805.789 355.192C792.966 360.028 778.533 354.549 772.612 342.441C771.752 340.681 771.11 338.815 770.244 336.652Z" fill="white"/>
<path d="M1434.91 456.381C1449.86 455.848 1462.26 470.043 1461.41 484.674C1460.59 498.732 1448.82 509.901 1434.29 510.322C1421.22 510.7 1409.53 500.813 1407.15 487.022C1404.86 473.786 1414.23 460.351 1427.72 456.848C1429.87 456.289 1432.23 456.514 1434.91 456.381Z" fill="white"/>
<path d="M1466.56 309.717C1455.51 313.602 1444.42 310.707 1436.97 302.215C1429.31 293.492 1427.97 282.685 1433.25 272.238C1438.06 262.713 1448.76 256.641 1459.36 257.427C1470.71 258.269 1481.58 267.83 1483.63 278.793C1486.1 292.041 1479.12 305.14 1466.56 309.717Z" fill="white"/>
<path d="M1148.33 395.575C1148.82 379.657 1161.4 370.263 1173 369.386C1186.39 368.375 1199.13 378.018 1201.46 390.524C1204.53 406.946 1193.75 421.795 1177.4 423.263C1162.08 424.64 1147.7 412.221 1148.33 395.575Z" fill="white"/>
<path d="M1264.93 517.658C1277.03 499.406 1299.98 498.891 1311.45 516.523C1318.2 526.913 1317.44 544.555 1301.95 554.045C1290.65 560.966 1273.42 557 1266.2 545.547C1260.52 536.557 1260.14 527.415 1264.93 517.658Z" fill="white"/>
<path d="M1197.5 641.054C1190.05 624.337 1199.85 605.65 1218 602.936C1228.83 601.317 1237.69 605.284 1244.23 614.537C1255.1 629.935 1246.12 652.046 1227.92 655.993C1215.63 658.657 1203.07 652.63 1197.5 641.054Z" fill="white"/>
<path d="M1321.76 140.172C1321.84 151.833 1317.75 160.927 1307.55 166.48C1297.88 171.741 1288.16 171.115 1279.25 164.938C1269.98 158.516 1266.23 149.122 1267.91 138.062C1269.48 127.665 1278.65 118.21 1288.7 116.434C1303.53 113.813 1316.56 121.731 1320.47 134.959C1320.95 136.552 1321.31 138.177 1321.76 140.172Z" fill="white"/>
<path d="M1529.67 239.063C1532.62 252.298 1524.46 266.757 1512.22 270.539C1498.02 274.923 1483.9 268.406 1478.54 255.21C1472.34 239.953 1479.8 223.219 1496.55 218.703C1510.52 214.937 1525.39 222.345 1529.67 239.063Z" fill="white"/>
<path d="M872.713 195.519C880.537 185.195 893.563 181.864 905.44 186.868C916.461 191.512 923.122 204.841 920.933 215.77C918.1 229.916 908.588 237.671 893.2 238.256C881.59 238.697 869.36 227.513 867.812 215.972C866.801 208.435 868.527 201.946 872.713 195.519Z" fill="white"/>
<path d="M1046.14 364.714C1044.82 365.731 1043.66 367.148 1042.17 367.703C1021.51 375.42 1008.28 389.786 1003.21 411.321C995.526 443.929 1017.66 475.698 1049.1 482.337C1074.87 487.778 1100.33 474.653 1112.65 454.031C1117.25 446.332 1119.79 437.783 1120.91 428.553C1122.04 433.939 1123.02 439.448 1119.68 444.849C1116.14 450.549 1113.4 456.744 1109.87 462.445C1105.42 469.618 1098.1 473.642 1091.28 478.11C1084.16 482.775 1076.52 485.941 1067.75 485.59C1060.81 485.313 1053.54 486.444 1046.99 484.749C1027.36 479.677 1012.8 467.605 1004.22 449.132C1001.44 443.143 998.92 436.726 999.861 429.641C1000.28 426.514 1000.15 423.268 999.89 420.107C999.055 409.944 1003.22 401.363 1007.72 392.673C1012.73 382.987 1021.69 377.41 1029.42 370.576C1031.76 368.505 1035.26 367.736 1038.87 366.072C1029.69 363.554 1022.4 359.037 1016.75 352.489C1010.7 345.48 1006.21 337.634 1006.21 327.734C1006.22 320.105 1006.2 312.533 1010.1 305.792C1013.69 299.59 1017.41 293.356 1023.78 289.348C1024.9 288.647 1025.51 287.148 1026.54 285.677C1026.72 285.337 1027.05 285.353 1027.05 285.353C1029.34 284.605 1031.58 283.585 1033.92 283.169C1037.76 282.488 1041.66 282.019 1045.56 281.797C1049.49 281.572 1053.44 281.746 1057.39 281.77C1058.29 281.776 1059.32 281.624 1060.08 281.987C1070.07 286.745 1079.94 292.016 1085.61 301.918C1088.42 306.822 1089.71 312.791 1090.8 318.45C1094.1 335.622 1086.45 348.358 1073.61 358.788C1072.61 359.593 1071.86 360.691 1070.57 362.126C1075.81 363.674 1080.46 364.921 1085.01 366.456C1086.94 367.106 1088.78 368.202 1090.47 369.366C1099.07 375.276 1107.91 381.223 1113.25 390.346C1118.58 399.445 1124.2 408.866 1121.42 420.633C1120.63 418.314 1120 415.724 1119.54 413.104C1115.07 387.758 1093.47 368.402 1069.45 365.31C1066.32 364.907 1063.2 364.352 1059.96 363.49C1075.9 357.577 1085.89 346.954 1088.58 329.758C1091.9 308.544 1078.31 289.897 1059.08 284.763C1037.33 278.955 1015.86 292.407 1009.66 313.033C1002.53 336.758 1020.3 363.205 1046.14 364.714Z" fill="white"/>
<path d="M1027.22 285.092C1027.05 285.353 1026.72 285.337 1026.56 285.339C1021.42 288.369 1016.45 291.398 1011.16 294.162C1010.84 293.51 1010.84 293.122 1011.08 292.535C1016.49 288.976 1022.02 286.052 1026.77 282.184C1049.37 263.808 1054.23 229.182 1038.26 204.911C1024.85 184.54 999.699 173.598 974.666 179.316C945.601 185.956 924.932 215.033 929.3 244.548C929.913 248.689 930.415 252.846 930.873 257.075C930.777 257.154 930.586 257.313 930.586 257.313C929.492 254.173 928.037 251.108 927.364 247.88C924.256 232.964 927.644 219.037 935.061 206.148C938.021 201.004 942.49 196.723 946.321 192.089C947.433 190.744 948.711 189.536 949.878 187.535C927.527 193.896 909.776 187.662 897.234 168.673C891.209 159.551 890.171 148.834 892.17 138.154C894.697 124.655 902.808 114.918 914.803 108.836C923.658 104.345 933.534 102.284 943.275 104.978C959.577 109.488 971.576 119.436 975.397 136.519C979.014 152.694 975.876 167.517 961.91 178.904C962.349 179.253 962.789 179.601 963.228 179.95C968.664 178.513 974.027 176.469 979.555 175.808C985.181 175.135 991.131 175.019 996.649 176.119C1003.76 177.537 1010.58 180.407 1018.05 182.894C1019.27 183.242 1019.96 183.346 1020.75 183.756C1021.51 184.471 1022.18 184.882 1023.1 185.325C1023.98 185.929 1024.6 186.499 1025.31 187.378C1026.07 188.105 1026.75 188.524 1027.64 188.958C1028.21 189.189 1028.56 189.405 1028.91 189.621C1030.75 191.964 1032.48 194.404 1034.44 196.635C1046.06 209.842 1051.47 225.446 1049.64 242.694C1048.05 257.61 1042.04 271.125 1030.56 281.575C1029.45 282.593 1028.45 283.743 1027.22 285.092ZM971.75 132.215C963.041 111.436 941.041 101.245 920.713 108.699C899.534 116.465 889.573 136.126 894.732 157.096C898.75 173.43 910.144 184.039 927.29 186.845C942.148 189.276 955.17 184.876 964.815 173.279C974.677 161.421 977.71 147.796 971.75 132.215Z" fill="white"/>
<path d="M1354.21 381.182C1360.44 375.762 1367.54 373.065 1375.25 371.782C1388.68 369.549 1400.37 373.339 1410.35 382.349C1423.48 394.197 1426.9 409.584 1422.67 425.765C1419.38 438.342 1410.87 447.838 1397.98 453.043C1386.11 457.836 1374.72 456.428 1363.26 452.563C1360.58 451.661 1358.3 449.585 1355.08 448.308C1361.56 463.72 1360.46 477.137 1347.07 488.067C1341.59 492.539 1335.03 492.788 1328.68 492.689C1308.86 492.38 1300.53 474.724 1301.31 463.268C1302.08 451.889 1307.73 442.873 1318.19 438.801C1327.83 435.05 1338.24 435.001 1347.84 441.046C1342.8 430.979 1337.35 421.662 1339.17 409.923C1340.92 398.602 1344.93 388.786 1354.21 381.182ZM1418.62 397.005C1412.34 383.661 1401.96 375.699 1387.34 373.638C1358.99 369.64 1336.97 394.004 1341.51 420.431C1346.14 447.391 1375.19 462.363 1399.7 450.248C1418.74 440.837 1427.81 416.487 1418.62 397.005ZM1347.58 484.28C1353.38 479.421 1356.27 472.994 1356.62 465.652C1357.17 454.263 1349.15 443.125 1338.39 439.569C1328.28 436.232 1315.66 440.337 1309.02 449.024C1302.05 458.152 1302.57 469.805 1306.67 476.79C1315.34 491.569 1333.1 495.636 1347.58 484.28Z" fill="white"/>
<path d="M1140.21 326.206C1139.13 325.487 1137.61 325.02 1137.02 324.012C1128.55 309.602 1126.96 293.855 1130.35 277.994C1133.2 264.656 1140.78 253.308 1151.45 244.733C1158.8 238.822 1167.58 235.417 1176.81 232.709C1191.73 228.336 1205.82 231.366 1218.57 237.85C1230.06 243.694 1239.22 253.001 1245.28 265.426C1249.94 274.989 1251.56 284.654 1251.93 294.802C1252.27 304.139 1249.27 312.736 1245.15 321.079C1240.51 330.492 1233.95 337.985 1225.16 343.682C1216.88 349.05 1207.6 351.264 1198.27 354.077C1187.74 357.251 1179.02 352.411 1169.61 351.111C1160.23 349.814 1153.9 342.089 1146.83 336.28C1146.37 335.906 1145.79 335.686 1144.95 335.017C1143.13 332.479 1141.62 330.317 1140.12 328.156C1140.12 327.722 1140.12 327.288 1140.46 326.592C1146.64 331.736 1151.98 337.836 1158.41 342.408C1172.19 352.208 1187.92 354.72 1204.13 350.546C1225.92 344.936 1240.51 331.214 1247.11 309.354C1254.06 286.311 1247.6 266.973 1231.26 250.195C1213.21 231.651 1182.58 228.674 1160.2 241.723C1137.03 255.23 1123.55 287.78 1135.14 314.129C1136.89 318.126 1138.52 322.179 1140.21 326.206Z" fill="white"/>
<path d="M1020.66 183.451C1019.96 183.346 1019.27 183.242 1018.41 182.947C1016.64 180.627 1014.92 178.58 1013.48 176.35C1010.57 171.849 1007.32 167.478 1005.1 162.645C999.824 151.172 998.059 139.551 1002.01 126.837C1005.35 116.078 1010.46 107.001 1018.97 99.9033C1026.2 93.8703 1033.66 88.0762 1043.82 87.7684C1046.02 87.7016 1048.16 86.4202 1050.39 86.1477C1059.51 85.0307 1067.9 87.4902 1076.38 90.774C1089.53 95.86 1098.13 105.506 1104.23 117.418C1106.91 122.668 1109.73 128.274 1109.24 134.903C1108.65 142.989 1109.68 151.125 1106.45 159.009C1102.32 169.071 1096.74 177.976 1087.76 184.236C1083.04 187.525 1078.04 191.195 1072.63 192.542C1064.42 194.584 1055.87 196.789 1047.22 194.71C1041.31 193.289 1035.5 191.452 1029.28 189.711C1028.56 189.405 1028.21 189.189 1027.55 188.649C1026.56 187.907 1025.89 187.488 1025.22 187.069C1024.6 186.499 1023.98 185.929 1023.01 185.017C1022 184.268 1021.33 183.859 1020.66 183.451ZM1056.74 192.648C1058.86 192.548 1061 192.631 1063.08 192.319C1091.86 188.013 1110.79 159.989 1106.54 133.051C1104.14 117.809 1096.62 105.369 1083.93 97.361C1064.47 85.084 1044.43 85.1823 1024.84 98.3706C1004.95 111.76 998.819 135.73 1005.09 156.375C1011.74 178.243 1032.35 193.651 1056.74 192.648Z" fill="white"/>
<path d="M1380.47 182.298C1388.27 195.871 1388.5 209.525 1381.32 222.814C1373.89 236.581 1361.91 244.183 1346.11 244.808C1327.44 245.546 1311.95 234.99 1305.75 218.193C1300.33 203.506 1302.23 188.912 1312.85 176.466C1323.27 164.258 1336.59 159.842 1352.31 162.476C1364.71 164.554 1373.85 171.376 1380.47 182.298ZM1306.5 212.91C1307.41 215.237 1308.24 217.603 1309.26 219.883C1314.03 230.569 1322.35 237.186 1333.31 240.793C1339.94 242.976 1346.32 242.532 1353.26 241.226C1365.88 238.853 1373.98 231.481 1379.84 220.98C1383.9 213.714 1384.06 205.428 1382.91 197.561C1382.04 191.672 1380.25 185.164 1376.73 180.568C1368.01 169.176 1356.34 163.106 1341.21 164.03C1332.98 164.534 1325.97 167.576 1320.16 172.397C1307.83 182.638 1303.02 196.111 1306.5 212.91Z" fill="white"/>
<path d="M1139.83 328.278C1141.62 330.317 1143.13 332.479 1144.63 334.954C1144.71 336.016 1144.49 337.033 1144.89 337.472C1150.91 343.993 1147.67 351.928 1148.01 359.221C1148.12 361.532 1145.95 364.097 1144.47 366.305C1140.52 372.174 1135.13 375.986 1128.49 378.748C1120.79 381.948 1113.8 378.511 1106.51 378.017C1105.98 377.981 1105.31 377.56 1104.99 377.115C1101.3 372.06 1095.13 369.609 1092.94 362.512C1091.25 357.038 1089.65 352.236 1090.85 346.551C1092.78 337.441 1097.41 329.295 1105.5 325.797C1110.87 323.473 1117.46 318.978 1124.66 323.274C1126.98 324.657 1130.39 324.2 1132.93 325.079C1135.13 326.186 1137.34 327.294 1139.83 328.278ZM1143.68 362.031C1144.56 357.784 1146.53 353.434 1146.13 349.311C1144.81 335.537 1134.87 325.971 1120.64 324.923C1110.44 324.173 1099.49 329.082 1094.33 343.051C1089.01 357.474 1098.84 373.58 1112.17 376.692C1124.89 379.659 1135.38 376.777 1143.68 362.031Z" fill="white"/>
<path d="M1010.84 292.734C1010.84 293.122 1010.84 293.51 1010.83 294.189C998.825 298.545 986.509 299.066 973.851 296.956C977.515 300.957 980.796 304.346 983.854 307.924C989.616 314.664 993.358 322.422 994.826 331.35C992.259 326.385 990.433 320.893 987.456 316.118C978.962 302.496 967.271 293.231 950.748 291.267C949.725 291.146 948.748 290.633 947.574 290.036C948.387 289.551 949.369 289.293 950.366 289.126C951.235 288.981 952.121 288.94 954.289 288.726C952.271 287.167 951.023 286.309 949.896 285.314C942.392 278.689 935.901 271.308 932.585 261.204C932.684 260.741 932.962 260.499 933.195 260.683C934.039 261.909 934.672 262.939 935.255 263.997C947.419 286.099 966.118 297.093 991.326 296.195C997.863 295.963 1004.34 293.937 1010.84 292.734ZM972.123 296.783C971.889 296.724 971.656 296.665 971.422 296.606C971.574 296.755 971.726 296.904 972.123 296.783Z" fill="white"/>
<path d="M913.629 387.875C921.155 390.049 928.529 393.647 936.258 394.75C955.028 397.427 970.648 390.683 982.931 376.241C983.412 375.675 984.008 375.208 984.824 374.642C982.843 377.613 981.069 381.219 978.247 383.563C966.16 393.603 952.153 398.916 936.384 397.001C928.307 396.021 920.023 394.165 913.629 387.875Z" fill="white"/>
<path d="M889.102 337.451C890.498 345.046 890.873 352.956 892.863 360.438C895.811 371.522 903.913 379.263 912.446 386.744C909.369 384.919 905.549 383.394 903.263 380.61C899.007 375.427 894.833 369.876 892.109 363.811C888.426 355.613 886.695 346.721 889.102 337.451Z" fill="white"/>
<path d="M911.285 299.246C908.044 302.972 904.206 306.387 901.008 310.322C895.197 317.472 891.881 325.862 889.809 335.033C889.985 332.019 890.118 328.747 890.988 325.684C894.048 314.909 900.881 306.668 909.257 299.567C909.655 299.229 910.395 299.292 911.285 299.246Z" fill="white"/>
<path d="M937.51 289.492C936.548 290.187 935.357 290.72 934.129 291.143C927.51 293.423 920.881 295.676 913.945 297.919C915.44 296.594 917.085 294.922 919.08 294.05C924.868 291.518 930.527 288.267 937.51 289.492Z" fill="white"/>
<path d="M986.762 372.59C989.013 366.462 991.56 360.323 994.368 354.01C993.427 358.315 992.46 362.875 990.919 367.233C990.216 369.222 988.38 370.809 986.762 372.59Z" fill="white"/>
<path d="M995.119 351.58C994.749 346.27 994.695 340.868 994.747 335.073C995.302 335.483 996.151 336.295 996.131 337.086C996.008 341.889 995.688 346.687 995.119 351.58Z" fill="white"/>
<path d="M932.547 260.866C931.838 259.976 931.265 258.962 930.639 257.63C930.586 257.313 930.777 257.153 931.129 257.227C931.975 258.367 932.468 259.433 932.961 260.499C932.961 260.499 932.683 260.741 932.547 260.866Z" fill="white"/>
<path d="M943.945 289.414C943.029 289.655 941.908 289.733 940.47 289.703C941.349 289.48 942.544 289.366 943.945 289.414Z" fill="white"/>
<path d="M1046.57 364.666C1020.3 363.205 1002.53 336.758 1009.66 313.033C1015.86 292.407 1037.33 278.955 1059.08 284.763C1078.31 289.897 1091.9 308.544 1088.58 329.758C1085.89 346.954 1075.9 357.577 1059.65 363.328C1055.32 363.901 1051.16 364.259 1046.57 364.666Z" fill="white"/>
<path d="M1068.68 362.328C1068.63 362.361 1068.74 362.295 1068.68 362.328V362.328Z" fill="white"/>
<path d="M933.195 260.683C932.468 259.434 931.975 258.368 931.225 257.149C930.415 252.846 929.913 248.689 929.3 244.548C924.932 215.033 945.6 185.956 974.666 179.316C999.699 173.598 1024.85 184.54 1038.26 204.911C1054.23 229.182 1049.37 263.808 1026.77 282.184C1022.02 286.052 1016.49 288.976 1011.08 292.535C1004.33 293.937 997.862 295.963 991.326 296.196C966.118 297.093 947.419 286.099 935.254 263.997C934.672 262.939 934.039 261.91 933.195 260.683Z" fill="white"/>
<path d="M971.846 132.557C977.71 147.796 974.677 161.421 964.815 173.279C955.17 184.875 942.148 189.276 927.29 186.845C910.145 184.039 898.75 173.43 894.732 157.096C889.573 136.126 899.534 116.465 920.713 108.699C941.041 101.245 963.041 111.436 971.846 132.557Z" fill="white"/>
<path d="M1025.31 187.377C1025.89 187.488 1026.56 187.907 1027.32 188.634C1026.75 188.524 1026.07 188.105 1025.31 187.377Z" fill="white"/>
<path d="M1020.75 183.756C1021.33 183.859 1022 184.268 1022.76 184.984C1022.18 184.882 1021.51 184.471 1020.75 183.756Z" fill="white"/>
<path d="M1418.75 397.327C1427.81 416.487 1418.74 440.837 1399.7 450.248C1375.19 462.363 1346.14 447.391 1341.51 420.431C1336.97 394.004 1358.99 369.64 1387.34 373.638C1401.96 375.699 1412.34 383.661 1418.75 397.327Z" fill="white"/>
<path d="M1347.34 484.507C1333.1 495.636 1315.34 491.569 1306.67 476.79C1302.57 469.805 1302.05 458.152 1309.02 449.024C1315.66 440.337 1328.28 436.232 1338.39 439.569C1349.15 443.125 1357.17 454.263 1356.62 465.652C1356.27 472.994 1353.38 479.421 1347.34 484.507Z" fill="white"/>
<path d="M1140.15 326.267C1138.52 322.179 1136.89 318.126 1135.14 314.129C1123.55 287.78 1137.03 255.23 1160.2 241.723C1182.58 228.674 1213.21 231.652 1231.26 250.195C1247.6 266.974 1254.06 286.311 1247.11 309.354C1240.51 331.214 1225.92 344.936 1204.13 350.547C1187.92 354.72 1172.19 352.208 1158.41 342.408C1151.98 337.837 1146.64 331.737 1140.51 326.27C1140.21 326.21 1140.09 326.326 1140.15 326.267Z" fill="white"/>
<path d="M1056.3 192.649C1032.35 193.65 1011.74 178.243 1005.09 156.374C998.819 135.729 1004.95 111.759 1024.84 98.3703C1044.43 85.182 1064.47 85.0837 1083.93 97.3608C1096.62 105.369 1104.14 117.809 1106.54 133.051C1110.79 159.988 1091.86 188.012 1063.08 192.319C1061 192.631 1058.86 192.547 1056.3 192.649Z" fill="white"/>
<path d="M1306.49 212.512C1303.02 196.111 1307.83 182.638 1320.16 172.397C1325.97 167.576 1332.98 164.534 1341.21 164.031C1356.34 163.106 1368.01 169.177 1376.73 180.568C1380.25 185.164 1382.04 191.672 1382.91 197.561C1384.06 205.428 1383.9 213.714 1379.84 220.98C1373.98 231.481 1365.88 238.853 1353.26 241.226C1346.32 242.532 1339.94 242.976 1333.31 240.793C1322.35 237.186 1314.03 230.569 1309.26 219.883C1308.24 217.603 1307.41 215.237 1306.49 212.512Z" fill="white"/>
<path d="M1143.54 362.345C1135.38 376.777 1124.89 379.659 1112.17 376.692C1098.84 373.581 1089.01 357.474 1094.33 343.052C1099.49 329.083 1110.44 324.173 1120.64 324.923C1134.87 325.971 1144.81 335.538 1146.13 349.312C1146.53 353.435 1144.56 357.785 1143.54 362.345Z" fill="white"/>
<path d="M972 296.918C971.726 296.903 971.574 296.754 971.422 296.605C971.655 296.665 971.889 296.724 972 296.918Z" fill="white"/>
<path d="M14.149 154.124H40.4541L105.42 258.946H105.818V154.124H129.533V296.411H103.228L38.4612 191.789H37.8634V296.411H14.149V154.124ZM199.018 299.201C190.781 299.201 183.408 297.873 176.898 295.215C170.521 292.426 165.074 288.639 160.557 283.856C156.173 279.074 152.785 273.361 150.393 266.718C148.135 260.076 147.006 252.769 147.006 244.797C147.006 236.959 148.135 229.718 150.393 223.076C152.785 216.433 156.173 210.72 160.557 205.938C165.074 201.155 170.521 197.435 176.898 194.778C183.408 191.988 190.781 190.593 199.018 190.593C207.255 190.593 214.562 191.988 220.939 194.778C227.449 197.435 232.896 201.155 237.28 205.938C241.797 210.72 245.185 216.433 247.443 223.076C249.835 229.718 251.03 236.959 251.03 244.797C251.03 252.769 249.835 260.076 247.443 266.718C245.185 273.361 241.797 279.074 237.28 283.856C232.896 288.639 227.449 292.426 220.939 295.215C214.562 297.873 207.255 299.201 199.018 299.201ZM199.018 281.266C204.066 281.266 208.451 280.203 212.17 278.077C215.89 275.952 218.946 273.162 221.337 269.707C223.729 266.253 225.456 262.4 226.519 258.149C227.714 253.765 228.312 249.314 228.312 244.797C228.312 240.413 227.714 236.029 226.519 231.645C225.456 227.261 223.729 223.408 221.337 220.086C218.946 216.632 215.89 213.842 212.17 211.717C208.451 209.591 204.066 208.528 199.018 208.528C193.969 208.528 189.585 209.591 185.865 211.717C182.145 213.842 179.09 216.632 176.698 220.086C174.307 223.408 172.514 227.261 171.318 231.645C170.255 236.029 169.724 240.413 169.724 244.797C169.724 249.314 170.255 253.765 171.318 258.149C172.514 262.4 174.307 266.253 176.698 269.707C179.09 273.162 182.145 275.952 185.865 278.077C189.585 280.203 193.969 281.266 199.018 281.266ZM283.069 263.33C283.734 269.973 286.258 274.623 290.642 277.28C295.026 279.937 300.274 281.266 306.385 281.266C308.511 281.266 310.902 281.133 313.559 280.867C316.349 280.469 318.94 279.804 321.331 278.874C323.723 277.944 325.649 276.616 327.111 274.889C328.705 273.029 329.435 270.637 329.303 267.715C329.17 264.792 328.107 262.4 326.114 260.541C324.121 258.681 321.531 257.219 318.342 256.156C315.287 254.961 311.766 253.964 307.78 253.167C303.795 252.37 299.743 251.506 295.624 250.576C291.373 249.647 287.254 248.517 283.269 247.189C279.416 245.86 275.895 244.067 272.707 241.808C269.651 239.55 267.193 236.693 265.333 233.239C263.473 229.652 262.543 225.268 262.543 220.086C262.543 214.507 263.872 209.857 266.529 206.137C269.319 202.284 272.773 199.228 276.892 196.97C281.143 194.579 285.793 192.918 290.841 191.988C296.023 191.058 300.938 190.593 305.588 190.593C310.902 190.593 315.951 191.191 320.734 192.386C325.649 193.449 330.033 195.243 333.886 197.767C337.872 200.291 341.127 203.613 343.651 207.731C346.308 211.717 347.969 216.566 348.633 222.279H324.918C323.856 216.832 321.331 213.178 317.346 211.318C313.493 209.458 309.042 208.528 303.994 208.528C302.4 208.528 300.473 208.661 298.215 208.927C296.089 209.192 294.03 209.724 292.037 210.521C290.177 211.185 288.583 212.248 287.254 213.709C285.926 215.038 285.261 216.832 285.261 219.09C285.261 221.88 286.191 224.139 288.051 225.866C290.044 227.593 292.568 229.054 295.624 230.25C298.813 231.313 302.4 232.243 306.385 233.04C310.371 233.837 314.489 234.7 318.741 235.63C322.859 236.56 326.911 237.69 330.897 239.018C334.882 240.347 338.403 242.14 341.459 244.399C344.647 246.657 347.171 249.514 349.031 252.968C351.024 256.422 352.021 260.673 352.021 265.722C352.021 271.833 350.626 277.014 347.836 281.266C345.046 285.517 341.392 288.971 336.875 291.628C332.491 294.285 327.576 296.212 322.128 297.408C316.681 298.603 311.301 299.201 305.987 299.201C299.477 299.201 293.432 298.47 287.852 297.009C282.405 295.548 277.622 293.355 273.504 290.433C269.518 287.377 266.33 283.657 263.938 279.273C261.68 274.756 260.484 269.442 260.351 263.33H283.069ZM382.422 263.33C383.086 269.973 385.61 274.623 389.995 277.28C394.379 279.937 399.627 281.266 405.738 281.266C407.863 281.266 410.255 281.133 412.912 280.867C415.702 280.469 418.293 279.804 420.684 278.874C423.075 277.944 425.002 276.616 426.463 274.889C428.057 273.029 428.788 270.637 428.655 267.715C428.522 264.792 427.459 262.4 425.467 260.541C423.474 258.681 420.883 257.219 417.695 256.156C414.639 254.961 411.118 253.964 407.133 253.167C403.147 252.37 399.095 251.506 394.977 250.576C390.725 249.647 386.607 248.517 382.621 247.189C378.768 245.86 375.248 244.067 372.059 241.808C369.004 239.55 366.546 236.693 364.686 233.239C362.826 229.652 361.896 225.268 361.896 220.086C361.896 214.507 363.224 209.857 365.882 206.137C368.672 202.284 372.126 199.228 376.244 196.97C380.496 194.579 385.145 192.918 390.194 191.988C395.375 191.058 400.291 190.593 404.941 190.593C410.255 190.593 415.303 191.191 420.086 192.386C425.002 193.449 429.386 195.243 433.239 197.767C437.224 200.291 440.479 203.613 443.003 207.731C445.66 211.717 447.321 216.566 447.985 222.279H424.271C423.208 216.832 420.684 213.178 416.698 211.318C412.845 209.458 408.395 208.528 403.346 208.528C401.752 208.528 399.826 208.661 397.567 208.927C395.442 209.192 393.382 209.724 391.39 210.521C389.53 211.185 387.935 212.248 386.607 213.709C385.278 215.038 384.614 216.832 384.614 219.09C384.614 221.88 385.544 224.139 387.404 225.866C389.397 227.593 391.921 229.054 394.977 230.25C398.165 231.313 401.752 232.243 405.738 233.04C409.723 233.837 413.842 234.7 418.093 235.63C422.212 236.56 426.264 237.69 430.249 239.018C434.235 240.347 437.756 242.14 440.811 244.399C444 246.657 446.524 249.514 448.384 252.968C450.377 256.422 451.373 260.673 451.373 265.722C451.373 271.833 449.978 277.014 447.188 281.266C444.398 285.517 440.745 288.971 436.228 291.628C431.844 294.285 426.928 296.212 421.481 297.408C416.034 298.603 410.653 299.201 405.339 299.201C398.829 299.201 392.785 298.47 387.205 297.009C381.758 295.548 376.975 293.355 372.856 290.433C368.871 287.377 365.682 283.657 363.291 279.273C361.032 274.756 359.837 269.442 359.704 263.33H382.422ZM511.866 299.201C503.629 299.201 496.256 297.873 489.746 295.215C483.369 292.426 477.922 288.639 473.405 283.856C469.02 279.074 465.633 273.361 463.241 266.718C460.983 260.076 459.854 252.769 459.854 244.797C459.854 236.959 460.983 229.718 463.241 223.076C465.633 216.433 469.02 210.72 473.405 205.938C477.922 201.155 483.369 197.435 489.746 194.778C496.256 191.988 503.629 190.593 511.866 190.593C520.103 190.593 527.41 191.988 533.787 194.778C540.297 197.435 545.744 201.155 550.128 205.938C554.645 210.72 558.033 216.433 560.291 223.076C562.683 229.718 563.878 236.959 563.878 244.797C563.878 252.769 562.683 260.076 560.291 266.718C558.033 273.361 554.645 279.074 550.128 283.856C545.744 288.639 540.297 292.426 533.787 295.215C527.41 297.873 520.103 299.201 511.866 299.201ZM511.866 281.266C516.914 281.266 521.298 280.203 525.018 278.077C528.738 275.952 531.794 273.162 534.185 269.707C536.577 266.253 538.304 262.4 539.367 258.149C540.562 253.765 541.16 249.314 541.16 244.797C541.16 240.413 540.562 236.029 539.367 231.645C538.304 227.261 536.577 223.408 534.185 220.086C531.794 216.632 528.738 213.842 525.018 211.717C521.298 209.591 516.914 208.528 511.866 208.528C506.817 208.528 502.433 209.591 498.713 211.717C494.993 213.842 491.938 216.632 489.546 220.086C487.155 223.408 485.361 227.261 484.166 231.645C483.103 236.029 482.572 240.413 482.572 244.797C482.572 249.314 483.103 253.765 484.166 258.149C485.361 262.4 487.155 266.253 489.546 269.707C491.938 273.162 494.993 275.952 498.713 278.077C502.433 280.203 506.817 281.266 511.866 281.266ZM27.8993 406.499H74.5311C79.9781 406.499 84.6945 405.902 88.6801 404.706C92.6657 403.377 95.987 401.65 98.6441 399.525C101.301 397.266 103.294 394.675 104.623 391.753C105.951 388.83 106.615 385.708 106.615 382.386C106.615 364.584 95.9206 355.683 74.5311 355.683H27.8993V406.499ZM14.3482 344.124H74.5311C80.5095 344.124 86.2223 344.722 91.6693 345.918C97.2492 346.981 102.098 348.907 106.217 351.697C110.468 354.354 113.856 357.941 116.38 362.458C118.904 366.842 120.166 372.356 120.166 378.999C120.166 382.719 119.569 386.372 118.373 389.959C117.177 393.413 115.45 396.602 113.192 399.525C111.066 402.315 108.475 404.706 105.42 406.699C102.497 408.692 99.1755 410.086 95.4556 410.884V411.282C104.623 412.478 111.93 416.264 117.377 422.641C122.824 428.885 125.547 436.657 125.547 445.957C125.547 448.216 125.348 450.806 124.949 453.729C124.551 456.519 123.754 459.442 122.558 462.497C121.362 465.42 119.635 468.343 117.377 471.266C115.118 474.189 112.062 476.779 108.21 479.038C104.49 481.163 99.8398 482.957 94.2599 484.418C88.8129 485.747 82.2366 486.411 74.5311 486.411H14.3482V344.124ZM27.8993 474.853H74.5311C79.5796 474.853 84.3623 474.454 88.8794 473.657C93.3964 472.727 97.382 471.133 100.836 468.874C104.29 466.616 107.014 463.627 109.007 459.907C111 456.054 111.996 451.271 111.996 445.559C111.996 436.392 108.741 429.55 102.231 425.033C95.8542 420.383 86.6208 418.058 74.5311 418.058H27.8993V474.853ZM140.89 383.582H152.448V407.695H152.847C156.035 399.325 160.951 392.882 167.594 388.365C174.369 383.848 182.407 381.789 191.707 382.187V394.742C185.994 394.476 180.813 395.273 176.163 397.133C171.513 398.86 167.461 401.385 164.007 404.706C160.685 408.027 158.095 412.013 156.235 416.663C154.375 421.18 153.445 426.162 153.445 431.609V486.411H140.89V383.582ZM198.568 415.069C198.967 409.09 200.229 403.909 202.354 399.525C204.48 395.14 207.336 391.553 210.923 388.763C214.643 385.973 218.961 383.914 223.877 382.586C228.792 381.257 234.239 380.593 240.218 380.593C244.735 380.593 249.252 381.058 253.769 381.988C258.286 382.785 262.338 384.379 265.925 386.771C269.512 389.162 272.435 392.55 274.693 396.934C276.952 401.185 278.081 406.765 278.081 413.674V468.277C278.081 473.325 280.539 475.849 285.455 475.849C286.916 475.849 288.244 475.584 289.44 475.052V485.614C287.979 485.88 286.65 486.079 285.455 486.212C284.392 486.345 282.997 486.411 281.27 486.411C278.081 486.411 275.49 486.013 273.498 485.215C271.638 484.285 270.176 483.023 269.113 481.429C268.051 479.835 267.32 477.975 266.921 475.849C266.656 473.591 266.523 471.133 266.523 468.476H266.124C263.866 471.797 261.541 474.786 259.149 477.443C256.891 479.968 254.3 482.093 251.377 483.82C248.588 485.548 245.333 486.876 241.613 487.806C238.026 488.736 233.708 489.201 228.659 489.201C223.877 489.201 219.36 488.603 215.108 487.408C210.99 486.345 207.336 484.618 204.148 482.226C201.092 479.702 198.634 476.58 196.774 472.86C195.047 469.007 194.184 464.49 194.184 459.309C194.184 452.135 195.778 446.555 198.967 442.569C202.155 438.451 206.34 435.329 211.521 433.203C216.835 431.077 222.747 429.616 229.257 428.819C235.9 427.889 242.609 427.025 249.385 426.228C252.042 425.963 254.367 425.63 256.36 425.232C258.352 424.833 260.013 424.169 261.342 423.239C262.67 422.176 263.666 420.781 264.331 419.054C265.128 417.327 265.526 415.069 265.526 412.279C265.526 408.027 264.796 404.573 263.334 401.916C262.006 399.126 260.079 396.934 257.555 395.34C255.164 393.745 252.307 392.683 248.986 392.151C245.798 391.487 242.343 391.155 238.623 391.155C230.652 391.155 224.142 393.081 219.094 396.934C214.045 400.654 211.388 406.699 211.123 415.069H198.568ZM265.526 430.214H265.128C264.331 431.675 262.803 432.738 260.544 433.402C258.286 434.067 256.293 434.532 254.566 434.797C249.252 435.727 243.738 436.591 238.026 437.388C232.446 438.052 227.331 439.115 222.681 440.576C218.031 442.038 214.178 444.164 211.123 446.953C208.2 449.611 206.739 453.463 206.739 458.512C206.739 461.7 207.336 464.557 208.532 467.081C209.861 469.472 211.588 471.598 213.713 473.458C215.839 475.185 218.297 476.514 221.087 477.443C223.877 478.373 226.733 478.838 229.656 478.838C234.439 478.838 239.022 478.108 243.406 476.646C247.79 475.185 251.577 473.059 254.765 470.269C258.087 467.479 260.677 464.092 262.537 460.106C264.53 456.12 265.526 451.603 265.526 446.555V430.214ZM360.694 413.674C360.561 409.821 359.764 406.499 358.303 403.709C356.841 400.787 354.848 398.395 352.324 396.535C349.933 394.675 347.143 393.347 343.954 392.55C340.766 391.62 337.378 391.155 333.791 391.155C331.001 391.155 328.145 391.487 325.222 392.151C322.432 392.683 319.841 393.679 317.45 395.14C315.059 396.469 313.132 398.262 311.671 400.521C310.21 402.78 309.479 405.569 309.479 408.891C309.479 411.681 310.143 414.072 311.472 416.065C312.933 417.925 314.727 419.519 316.852 420.848C318.978 422.176 321.303 423.305 323.827 424.235C326.351 425.033 328.676 425.697 330.802 426.228L347.541 430.015C351.129 430.546 354.649 431.542 358.103 433.004C361.69 434.332 364.813 436.126 367.47 438.384C370.26 440.643 372.518 443.433 374.245 446.754C375.972 450.076 376.836 453.995 376.836 458.512C376.836 464.092 375.574 468.874 373.049 472.86C370.525 476.713 367.27 479.901 363.285 482.426C359.432 484.817 355.048 486.544 350.132 487.607C345.217 488.67 340.367 489.201 335.585 489.201C323.495 489.201 313.664 486.345 306.091 480.632C298.651 474.919 294.4 465.752 293.337 453.131H305.892C306.423 461.634 309.479 468.077 315.059 472.461C320.771 476.713 327.813 478.838 336.182 478.838C339.238 478.838 342.36 478.506 345.549 477.842C348.87 477.178 351.926 476.049 354.716 474.454C357.506 472.86 359.764 470.867 361.491 468.476C363.351 465.952 364.281 462.896 364.281 459.309C364.281 456.253 363.617 453.729 362.288 451.736C361.093 449.611 359.432 447.883 357.306 446.555C355.181 445.094 352.723 443.898 349.933 442.968C347.276 442.038 344.552 441.241 341.762 440.576L325.621 436.989C321.502 435.927 317.716 434.731 314.262 433.402C310.807 431.941 307.752 430.214 305.095 428.221C302.57 426.095 300.578 423.571 299.116 420.648C297.655 417.593 296.924 413.873 296.924 409.489C296.924 404.307 298.053 399.857 300.312 396.137C302.703 392.417 305.759 389.428 309.479 387.169C313.199 384.911 317.317 383.25 321.834 382.187C326.484 381.124 331.068 380.593 335.585 380.593C340.766 380.593 345.549 381.257 349.933 382.586C354.45 383.914 358.369 385.973 361.69 388.763C365.145 391.553 367.868 395.008 369.861 399.126C371.854 403.245 372.983 408.094 373.249 413.674H360.694ZM391.273 344.124H403.827V364.252H391.273V344.124ZM391.273 383.582H403.827V486.411H391.273V383.582ZM424.069 344.124H436.623V486.411H424.069V344.124ZM15.3446 535.124H28.8958V677.411H15.3446V535.124ZM51.9485 574.582H64.5032V592.318H64.9018C67.2932 586.074 71.5445 581.092 77.6558 577.372C83.7671 573.519 90.4762 571.593 97.7832 571.593C104.957 571.593 110.936 572.523 115.718 574.383C120.634 576.243 124.553 578.9 127.476 582.354C130.399 585.675 132.458 589.794 133.654 594.709C134.849 599.625 135.447 605.139 135.447 611.25V677.411H122.893V613.243C122.893 608.858 122.494 604.806 121.697 601.086C120.9 597.234 119.505 593.912 117.512 591.122C115.519 588.332 112.796 586.14 109.341 584.546C106.02 582.952 101.835 582.155 96.7868 582.155C91.7383 582.155 87.2213 583.085 83.2356 584.945C79.3829 586.672 76.0615 589.13 73.2716 592.318C70.6145 595.374 68.4888 599.094 66.8946 603.478C65.4332 607.729 64.6361 612.379 64.5032 617.428V677.411H51.9485V574.582ZM175.126 574.582H196.051V585.144H175.126V654.494C175.126 658.612 175.657 661.867 176.72 664.259C177.916 666.517 180.772 667.779 185.289 668.045C188.876 668.045 192.463 667.846 196.051 667.447V678.009C194.191 678.009 192.331 678.075 190.471 678.208C188.611 678.341 186.751 678.408 184.891 678.408C176.521 678.408 170.675 676.813 167.354 673.625C164.033 670.303 162.438 664.259 162.571 655.49V585.144H144.636V574.582H162.571V543.694H175.126V574.582ZM284.113 618.823C283.98 614.04 283.116 609.456 281.522 605.072C280.06 600.688 277.935 596.835 275.145 593.514C272.355 590.06 268.967 587.336 264.982 585.343C260.996 583.218 256.479 582.155 251.43 582.155C246.249 582.155 241.666 583.218 237.68 585.343C233.694 587.336 230.307 590.06 227.517 593.514C224.727 596.835 222.468 600.754 220.741 605.271C219.147 609.656 218.084 614.173 217.553 618.823H284.113ZM217.553 629.384C217.553 633.901 218.15 638.618 219.346 643.533C220.675 648.316 222.734 652.634 225.524 656.487C228.314 660.339 231.834 663.528 236.086 666.052C240.337 668.576 245.452 669.838 251.43 669.838C260.597 669.838 267.771 667.447 272.953 662.664C278.134 657.882 281.721 651.505 283.714 643.533H296.269C293.612 655.225 288.696 664.259 281.522 670.636C274.481 677.013 264.45 680.201 251.43 680.201C243.326 680.201 236.285 678.806 230.307 676.016C224.461 673.093 219.678 669.174 215.958 664.259C212.238 659.21 209.449 653.431 207.589 646.921C205.861 640.278 204.998 633.304 204.998 625.997C204.998 619.221 205.861 612.578 207.589 606.069C209.449 599.559 212.238 593.78 215.958 588.731C219.678 583.55 224.461 579.431 230.307 576.376C236.285 573.187 243.326 571.593 251.43 571.593C259.667 571.593 266.709 573.254 272.554 576.575C278.4 579.896 283.116 584.28 286.703 589.727C290.423 595.042 293.08 601.219 294.674 608.261C296.269 615.169 296.933 622.21 296.667 629.384H217.553ZM309.731 535.124H322.286V677.411H309.731V535.124ZM342.527 535.124H355.081V555.252H342.527V535.124ZM342.527 574.582H355.081V677.411H342.527V574.582ZM462.01 669.041C462.01 676.614 461.146 683.456 459.419 689.567C457.825 695.679 455.234 700.86 451.647 705.111C448.06 709.363 443.344 712.617 437.498 714.876C431.785 717.134 424.744 718.264 416.374 718.264C411.193 718.264 406.145 717.666 401.229 716.47C396.313 715.275 391.863 713.415 387.877 710.89C384.024 708.366 380.77 705.111 378.112 701.126C375.588 697.273 374.127 692.623 373.728 687.176H386.283C386.947 691.029 388.209 694.217 390.069 696.741C392.062 699.398 394.387 701.524 397.044 703.118C399.834 704.713 402.89 705.842 406.211 706.506C409.532 707.303 412.92 707.702 416.374 707.702C428.066 707.702 436.502 704.381 441.683 697.738C446.864 691.095 449.455 681.53 449.455 669.041V655.092H449.056C446.134 661.469 441.816 666.584 436.103 670.436C430.523 674.289 423.947 676.215 416.374 676.215C408.137 676.215 401.096 674.887 395.251 672.23C389.405 669.44 384.556 665.654 380.703 660.871C376.983 656.088 374.26 650.508 372.533 644.131C370.805 637.621 369.942 630.713 369.942 623.406C369.942 616.365 370.938 609.722 372.931 603.478C375.057 597.101 378.046 591.587 381.899 586.938C385.884 582.155 390.734 578.435 396.446 575.778C402.292 572.988 408.935 571.593 416.374 571.593C420.227 571.593 423.814 572.124 427.136 573.187C430.59 574.25 433.712 575.778 436.502 577.771C439.292 579.631 441.75 581.823 443.875 584.347C446.134 586.871 447.861 589.528 449.056 592.318H449.455V574.582H462.01V669.041ZM416.374 665.654C421.821 665.654 426.604 664.524 430.723 662.266C434.841 659.874 438.295 656.819 441.085 653.099C443.875 649.246 445.934 644.862 447.263 639.946C448.724 635.031 449.455 629.982 449.455 624.801C449.455 619.752 448.857 614.704 447.662 609.656C446.466 604.607 444.539 600.024 441.882 595.905C439.225 591.787 435.771 588.465 431.52 585.941C427.401 583.417 422.353 582.155 416.374 582.155C410.396 582.155 405.281 583.417 401.03 585.941C396.778 588.332 393.258 591.521 390.468 595.507C387.678 599.492 385.619 604.076 384.29 609.257C383.094 614.305 382.497 619.487 382.497 624.801C382.497 629.982 383.161 635.031 384.489 639.946C385.818 644.862 387.877 649.246 390.667 653.099C393.457 656.819 396.978 659.874 401.229 662.266C405.48 664.524 410.529 665.654 416.374 665.654ZM555.804 618.823C555.671 614.04 554.808 609.456 553.214 605.072C551.752 600.688 549.626 596.835 546.837 593.514C544.047 590.06 540.659 587.336 536.673 585.343C532.688 583.218 528.171 582.155 523.122 582.155C517.941 582.155 513.357 583.218 509.372 585.343C505.386 587.336 501.998 590.06 499.208 593.514C496.418 596.835 494.16 600.754 492.433 605.271C490.839 609.656 489.776 614.173 489.244 618.823H555.804ZM489.244 629.384C489.244 633.901 489.842 638.618 491.038 643.533C492.366 648.316 494.426 652.634 497.216 656.487C500.006 660.339 503.526 663.528 507.777 666.052C512.029 668.576 517.144 669.838 523.122 669.838C532.289 669.838 539.463 667.447 544.644 662.664C549.826 657.882 553.413 651.505 555.406 643.533H567.96C565.303 655.225 560.388 664.259 553.214 670.636C546.172 677.013 536.142 680.201 523.122 680.201C515.018 680.201 507.977 678.806 501.998 676.016C496.153 673.093 491.37 669.174 487.65 664.259C483.93 659.21 481.14 653.431 479.28 646.921C477.553 640.278 476.69 633.304 476.69 625.997C476.69 619.221 477.553 612.578 479.28 606.069C481.14 599.559 483.93 593.78 487.65 588.731C491.37 583.55 496.153 579.431 501.998 576.376C507.977 573.187 515.018 571.593 523.122 571.593C531.359 571.593 538.4 573.254 544.246 576.575C550.091 579.896 554.808 584.28 558.395 589.727C562.115 595.042 564.772 601.219 566.366 608.261C567.96 615.169 568.625 622.21 568.359 629.384H489.244ZM581.024 574.582H593.579V592.318H593.977C596.369 586.074 600.62 581.092 606.731 577.372C612.843 573.519 619.552 571.593 626.859 571.593C634.033 571.593 640.011 572.523 644.794 574.383C649.71 576.243 653.629 578.9 656.552 582.354C659.474 585.675 661.534 589.794 662.729 594.709C663.925 599.625 664.523 605.139 664.523 611.25V677.411H651.968V613.243C651.968 608.858 651.57 604.806 650.773 601.086C649.975 597.234 648.58 593.912 646.588 591.122C644.595 588.332 641.871 586.14 638.417 584.546C635.096 582.952 630.911 582.155 625.862 582.155C620.814 582.155 616.297 583.085 612.311 584.945C608.459 586.672 605.137 589.13 602.347 592.318C599.69 595.374 597.565 599.094 595.97 603.478C594.509 607.729 593.712 612.379 593.579 617.428V677.411H581.024V574.582ZM704.202 574.582H725.126V585.144H704.202V654.494C704.202 658.612 704.733 661.867 705.796 664.259C706.992 666.517 709.848 667.779 714.365 668.045C717.952 668.045 721.539 667.846 725.126 667.447V678.009C723.266 678.009 721.406 678.075 719.546 678.208C717.686 678.341 715.826 678.408 713.966 678.408C705.597 678.408 699.751 676.813 696.43 673.625C693.108 670.303 691.514 664.259 691.647 655.49V585.144H673.712V574.582H691.647V543.694H704.202V574.582ZM813.188 618.823C813.055 614.04 812.192 609.456 810.597 605.072C809.136 600.688 807.01 596.835 804.22 593.514C801.431 590.06 798.043 587.336 794.057 585.343C790.072 583.218 785.554 582.155 780.506 582.155C775.325 582.155 770.741 583.218 766.756 585.343C762.77 587.336 759.382 590.06 756.592 593.514C753.802 596.835 751.544 600.754 749.817 605.271C748.222 609.656 747.16 614.173 746.628 618.823H813.188ZM746.628 629.384C746.628 633.901 747.226 638.618 748.422 643.533C749.75 648.316 751.81 652.634 754.599 656.487C757.389 660.339 760.91 663.528 765.161 666.052C769.413 668.576 774.528 669.838 780.506 669.838C789.673 669.838 796.847 667.447 802.028 662.664C807.21 657.882 810.797 651.505 812.79 643.533H825.344C822.687 655.225 817.772 664.259 810.597 670.636C803.556 677.013 793.526 680.201 780.506 680.201C772.402 680.201 765.361 678.806 759.382 676.016C753.537 673.093 748.754 669.174 745.034 664.259C741.314 659.21 738.524 653.431 736.664 646.921C734.937 640.278 734.074 633.304 734.074 625.997C734.074 619.221 734.937 612.578 736.664 606.069C738.524 599.559 741.314 593.78 745.034 588.731C748.754 583.55 753.537 579.431 759.382 576.376C765.361 573.187 772.402 571.593 780.506 571.593C788.743 571.593 795.784 573.254 801.63 576.575C807.475 579.896 812.192 584.28 815.779 589.727C819.499 595.042 822.156 601.219 823.75 608.261C825.344 615.169 826.009 622.21 825.743 629.384H746.628Z" fill="white"/>
</svg>
